<svg xmlns="http://www.w3.org/2000/svg" width="72" height="72" viewBox="0 0 72 72" fill="none">
<rect x="0.5" y="0.5" width="71" height="71" rx="35.5" fill="#5C61FF"/>
<path fill-rule="evenodd" clip-rule="evenodd" d="M22.1193 23.9218L21.0046 29.4646C20.9671 29.6505 21.167 29.7941 21.3362 29.7028C22.1582 29.2564 24.1464 28.4336 27.2678 28.722C30.4016 29.0114 32.5408 31.1268 33.4333 32.1945C33.7308 32.5507 33.8761 33.0039 33.8409 33.4626C33.7122 35.145 33.5445 39.554 35.2344 40.5666C35.3934 40.6618 35.6097 40.7222 35.795 40.7182C36.2144 40.7105 36.6428 40.7105 37.0622 40.7182C37.2475 40.7209 37.4637 40.6618 37.6226 40.5665C39.3129 39.5531 39.146 35.144 39.0163 33.4626C38.9811 33.0039 39.1264 32.5507 39.4239 32.1945C40.3164 31.1268 42.4556 29.0114 45.5894 28.722C48.7108 28.4336 50.699 29.2564 51.521 29.7028C51.6902 29.7952 51.8901 29.6505 51.8526 29.4646L50.7379 23.9218C50.7371 23.918 50.74 23.9146 50.7438 23.9146C50.7476 23.9146 50.7504 23.9108 50.7496 23.9071C49.9756 20.2006 47.3708 21.1591 47.1552 21.2459C47.1514 21.2472 47.1479 21.2486 47.1444 21.2499C47.1363 21.2529 47.1287 21.2558 47.12 21.2581C46.7703 21.3661 42.0423 22.8335 39.8168 23.9869C37.6072 25.1337 37.7276 28.4314 37.7423 28.7209V28.7643L37.4914 36.3194C37.4903 36.3573 37.4846 36.394 37.4755 36.4307C37.4403 36.5677 37.3256 36.8594 36.9827 36.8594C36.9794 36.8594 36.7855 36.7967 36.6217 36.7437C36.5607 36.724 36.5039 36.7057 36.4627 36.6924C36.4499 36.6883 36.4393 36.6847 36.4305 36.6816C36.4292 36.6817 36.4279 36.6817 36.4271 36.6815L36.41 36.6758C36.4036 36.6736 36.3968 36.6784 36.3968 36.6852C36.3968 36.6895 36.3942 36.6932 36.3901 36.6945C36.3527 36.7066 36.3037 36.7224 36.251 36.7394C36.0843 36.7932 35.8793 36.8594 35.8768 36.8594C35.535 36.8594 35.4192 36.5677 35.384 36.4307C35.3738 36.394 35.3692 36.3573 35.3681 36.3194L35.1172 28.7643V28.7209C35.1319 28.4314 35.2523 25.1337 33.0427 23.9869C30.8161 22.8324 26.088 21.3661 25.7383 21.2581C25.7258 21.2548 25.7145 21.2503 25.7031 21.2459C25.4875 21.1602 22.8828 20.2006 22.1076 23.9071C22.1068 23.9108 22.1096 23.9146 22.1134 23.9146C22.1172 23.9146 22.1201 23.918 22.1193 23.9218ZM36.4305 36.6816C36.3682 36.6596 36.4009 36.6619 36.4311 36.6661C36.4398 36.6673 36.4428 36.678 36.4345 36.6808C36.4336 36.6811 36.432 36.6814 36.4305 36.6816ZM24.5215 33.7255C23.7643 33.5255 22.9886 33.9794 22.8148 34.7254C21.9482 38.4564 21.0102 48.8497 36.3377 51.9201C36.3945 51.9312 36.465 51.9312 36.5218 51.9201C51.8493 48.8497 50.9125 38.4564 50.0447 34.7254C49.8709 33.9794 49.0941 33.5255 48.3379 33.7255L44.212 34.813C43.3615 35.0366 42.9357 35.9735 43.3466 36.7353C49.5763 48.2722 37.7199 49.7765 36.485 49.9001C36.449 49.904 36.4105 49.904 36.3745 49.9001C35.1396 49.7765 23.282 48.2733 29.5129 36.7353C29.9238 35.9747 29.498 35.0377 28.6475 34.813L24.5215 33.7255Z" fill="#FFFFFF"/>
<rect x="0.5" y="0.5" width="71" height="71" rx="35.5" stroke="#FFFFFF" stroke-width="1"/>
</svg>
