<svg xmlns="http://www.w3.org/2000/svg" width="227" height="73" viewBox="0 0 227 73" fill="none">
<rect x="-0.719388" y="0.719388" width="69.4184" height="71.4181" rx="34.7092" transform="matrix(-1 0 0 1 69.4184 0.0715637)" fill="#0F3F62"/>
<path fill-rule="evenodd" clip-rule="evenodd" d="M21.1193 23.9218L20.0046 29.4646C19.9671 29.6505 20.167 29.7941 20.3362 29.7028C21.1582 29.2564 23.1464 28.4336 26.2678 28.722C29.4016 29.0114 31.5408 31.1268 32.4333 32.1945C32.7308 32.5507 32.8761 33.0039 32.8409 33.4626C32.7122 35.145 32.5445 39.554 34.2344 40.5666C34.3934 40.6618 34.6097 40.7222 34.795 40.7182C35.2144 40.7105 35.6428 40.7105 36.0622 40.7182C36.2475 40.7209 36.4637 40.6618 36.6226 40.5665C38.3129 39.5531 38.146 35.144 38.0163 33.4626C37.9811 33.0039 38.1264 32.5507 38.4239 32.1945C39.3164 31.1268 41.4556 29.0114 44.5894 28.722C47.7108 28.4336 49.699 29.2564 50.521 29.7028C50.6902 29.7952 50.8901 29.6505 50.8526 29.4646L49.7379 23.9218C49.7371 23.918 49.74 23.9146 49.7438 23.9146C49.7476 23.9146 49.7504 23.9108 49.7496 23.9071C48.9756 20.2006 46.3708 21.1591 46.1552 21.2459C46.1514 21.2472 46.1479 21.2486 46.1444 21.2499C46.1363 21.2529 46.1287 21.2558 46.12 21.2581C45.7703 21.3661 41.0423 22.8335 38.8168 23.9869C36.6072 25.1337 36.7276 28.4314 36.7423 28.7209V28.7643L36.4914 36.3194C36.4903 36.3573 36.4846 36.394 36.4755 36.4307C36.4403 36.5677 36.3256 36.8594 35.9827 36.8594C35.9794 36.8594 35.7855 36.7967 35.6217 36.7437C35.5607 36.724 35.5039 36.7057 35.4627 36.6924C35.4499 36.6883 35.4393 36.6847 35.4305 36.6816C35.4292 36.6817 35.4279 36.6817 35.4271 36.6815L35.41 36.6758C35.4036 36.6736 35.3968 36.6784 35.3968 36.6852C35.3968 36.6895 35.3942 36.6932 35.3901 36.6945C35.3527 36.7066 35.3037 36.7224 35.251 36.7394C35.0843 36.7932 34.8793 36.8594 34.8768 36.8594C34.535 36.8594 34.4192 36.5677 34.384 36.4307C34.3738 36.394 34.3692 36.3573 34.3681 36.3194L34.1172 28.7643V28.7209C34.1319 28.4314 34.2523 25.1337 32.0427 23.9869C29.8161 22.8324 25.088 21.3661 24.7383 21.2581C24.7258 21.2548 24.7145 21.2503 24.7031 21.2459C24.4875 21.1602 21.8828 20.2006 21.1076 23.9071C21.1068 23.9108 21.1096 23.9146 21.1134 23.9146C21.1172 23.9146 21.1201 23.918 21.1193 23.9218ZM35.4305 36.6816C35.3682 36.6596 35.4009 36.6619 35.4311 36.6661C35.4398 36.6673 35.4428 36.678 35.4345 36.6808C35.4336 36.6811 35.432 36.6814 35.4305 36.6816ZM23.5215 33.7255C22.7643 33.5255 21.9886 33.9794 21.8148 34.7254C20.9482 38.4564 20.0102 48.8497 35.3377 51.9201C35.3945 51.9312 35.465 51.9312 35.5218 51.9201C50.8493 48.8497 49.9125 38.4564 49.0447 34.7254C48.8709 33.9794 48.0941 33.5255 47.3379 33.7255L43.212 34.813C42.3615 35.0366 41.9357 35.9735 42.3466 36.7353C48.5763 48.2722 36.7199 49.7765 35.485 49.9001C35.449 49.904 35.4105 49.904 35.3745 49.9001C34.1396 49.7765 22.282 48.2733 28.5129 36.7353C28.9238 35.9747 28.498 35.0377 27.6475 34.813L23.5215 33.7255Z" fill="#EFF5F5"/>
<rect x="-0.719388" y="0.719388" width="69.4184" height="71.4181" rx="34.7092" transform="matrix(-1 0 0 1 69.4184 0.0715637)" stroke="#EFF5F5" stroke-width="1.43878"/>
<path d="M86.0877 41.152V14.8H95.4683V39.6709C95.4683 43.3737 96.3117 46.192 97.9986 48.1257C99.6855 50.0183 102.175 50.9646 105.466 50.9646C112.131 50.9646 115.464 47.2 115.464 39.6709V14.8H124.844V41.152C124.844 46.624 123.055 50.9646 119.475 54.1737C115.896 57.3829 111.226 58.9874 105.466 58.9874C99.5826 58.9874 94.8717 57.3829 91.3335 54.1737C87.8363 50.9646 86.0877 46.624 86.0877 41.152ZM131.176 50.1006C131.217 48.0846 131.711 46.336 132.657 44.8549C133.604 43.3737 134.961 42.1806 136.731 41.2754C138.541 40.3703 140.536 39.6709 142.717 39.1771C144.939 38.6423 147.551 38.2309 150.555 37.9429V36.7703C150.555 33.9314 148.868 32.512 145.494 32.512C141.75 32.512 139.487 34.1371 138.705 37.3874L130.806 35.6594C131.053 33.0674 132.493 30.8457 135.126 28.9943C137.8 27.1429 141.236 26.2171 145.432 26.2171C149.876 26.2171 153.27 27.2251 155.615 29.2411C158.001 31.2571 159.195 34.24 159.195 38.1897V49.4834C159.195 50.3063 159.297 50.8206 159.503 51.0263C159.709 51.232 160.223 51.3349 161.046 51.3349H163.761V58H160.12C157.487 58 155.718 57.5474 154.813 56.6423C153.949 55.696 153.476 54.0091 153.393 51.5817H150.493C148.929 56.5189 145.782 58.9874 141.051 58.9874C138.212 58.9874 135.846 58.1646 133.953 56.5189C132.102 54.8731 131.176 52.7337 131.176 50.1006ZM150.555 45.3486V43.3737C147.016 43.8263 144.383 44.464 142.655 45.2869C140.927 46.1097 140.063 47.4263 140.063 49.2366C140.063 51.4583 141.4 52.5691 144.075 52.5691C145.926 52.5691 147.469 51.952 148.703 50.7177C149.937 49.4834 150.555 47.6937 150.555 45.3486ZM170.587 49.9154V33.808H164.107V27.1429H170.587V17.4537H179.35V27.1429H187.373V33.808H179.35V48.3109C179.35 49.2571 179.556 49.9566 179.967 50.4091C180.42 50.8206 181.119 51.0263 182.066 51.0263H188.731V58H178.424C175.997 58 174.084 57.2594 172.685 55.7783C171.286 54.2971 170.587 52.3429 170.587 49.9154ZM193.948 47.9406V27.1429H202.712V45.904C202.712 49.7714 204.255 51.7051 207.34 51.7051C209.398 51.7051 210.94 50.8823 211.969 49.2366C212.998 47.5909 213.512 45.3074 213.512 42.3863V27.1429H222.275V58H214.129C214.17 56.0663 215.158 53.7006 217.091 50.9029H213.327C212.463 53.3714 211.187 55.3463 209.5 56.8274C207.855 58.2674 205.88 58.9874 203.576 58.9874C200.655 58.9874 198.31 58 196.54 56.0251C194.812 54.0091 193.948 51.3143 193.948 47.9406Z" fill="#0F3F62"/>
</svg>